# xmcd
#
# Track frame offsets: 
#        150
#        7955
#        17315
#        29995
#        37850
#        46577
#        53460
#        64480
#        76170
#        84632
#        95165
#        107600
#        119830
#        130255
#        138162
#        144465
#
# Disc length: 2079 seconds
#
# Revision: 0
# Processed by: cddbd v1.5.2PL0 Copyright (c) Steve Scherf et al.
# Submitted via: ExactAudioCopy v0.99pb4
#
DISCID=cd081d10
DTITLE=The Oak Ridge Boys - Gospel Greats
DYEAR=2004
DGENRE=Gospel
TTITLE0=River Of Life
TTITLE1=I Know
TTITLE2=You'll Never Walk Alone
TTITLE3=I Don't Mind My Journey
TTITLE4=I'll Live In Glory
TTITLE5=Each Step I Take
TTITLE6=I'll Wake Up On The Other Side
TTITLE7=No One Cared So Much
TTITLE8=Day Of Rejoicing
TTITLE9=My Heavenly Father
TTITLE10=On The Sunny Banks
TTITLE11=Without God
TTITLE12=Wonderful Savior
TTITLE13=Someday
TTITLE14=The Christian Way
TTITLE15=God's Hands
EXTD=
EXTT0=
EXTT1=
EXTT2=
EXTT3=
EXTT4=
EXTT5=
EXTT6=
EXTT7=
EXTT8=
EXTT9=
EXTT10=
EXTT11=
EXTT12=
EXTT13=
EXTT14=
EXTT15=
PLAYORDER=
